#define radR_width 16
#define radR_height 16
static unsigned char radR_bits[] = {
   0x3f, 0xfc, 0x0f, 0xf0, 0x87, 0xe0, 0x0f, 0xc4, 0x19, 0x88, 0x31, 0x84,
   0x60, 0x00, 0xc4, 0x00, 0x8c, 0x01, 0x00, 0x00, 0x09, 0x90, 0x11, 0x88,
   0x03, 0xc0, 0x07, 0xe1, 0x0f, 0xf0, 0x3f, 0xfc };
